<svg width="100" height="40" viewBox="0 0 153 40" fill="none" xmlns="http://www.w3.org/2000/svg">
<path d="M16.8348 40V0C16.8348 0 13.9578 4 8.81395 6.34782C3.67013 8.69565 0.00842285 9.3913 0.00842285 9.3913C0.00842285 9.3913 0.00842285 12.7826 0.00842285 21.1304C0.00842285 39.6522 16.8348 40 16.8348 40Z" fill="#1962BA"/>
<path d="M16.8353 40V0C16.8353 0 19.7123 4 24.8561 6.34782C30 8.69565 33.6617 9.3913 33.6617 9.3913C33.6617 9.3913 33.6617 12.7826 33.6617 21.1304C33.6617 39.6522 16.8353 40 16.8353 40Z" fill="#1962BA"/>
<path d="M24.6817 34.348H17.7942V24.1741H14.4812V34.348H7.59375V8.95667H14.4812V17.9132H17.7942V8.95667H24.6817V34.348Z" fill="white"/>
<path d="M43.5133 9.04358H47.2622V19.8262H52.7548V9.04358H56.5036V36.6088H52.7548V23.0436H47.2622V36.6958H43.5133V9.04358Z" fill="#232323"/>
<path d="M59.642 9.04358H69.581V12.174H63.3909V20.9566H68.8835V24.0871H63.3909V33.4784H69.581V36.6088H59.642V9.04358Z" fill="#232323"/>
<path d="M71.9351 9.04358H76.8173C78.8226 9.04358 80.3919 9.56532 81.3509 10.5218C82.5715 11.7392 83.2689 13.6523 83.2689 16.261C83.2689 18.261 82.9202 19.8262 82.3099 21.0436C81.6124 22.261 80.7406 22.9566 79.4328 23.3044L84.4895 36.6958H80.7406L75.684 23.2175V36.6958H71.9351V9.04358ZM75.5968 21.3044C77.0789 21.3044 78.0379 20.9566 78.6482 20.261C79.2585 19.5653 79.52 18.4349 79.52 16.8697C79.52 16.0001 79.4328 15.3044 79.3457 14.6958C79.2585 14.0871 78.9969 13.5653 78.7354 13.2175C78.4738 12.8697 78.1251 12.5218 77.6892 12.3479C77.2533 12.174 76.7302 12.0871 76.2071 12.0871H75.5968V21.3044Z" fill="#232323"/>
<path d="M99.921 23.5651C99.921 28.4347 99.3979 31.9129 98.2645 33.9129C97.2183 35.9999 95.3875 36.9564 92.772 36.9564C90.0693 36.9564 88.1512 35.826 87.105 33.6521C86.0588 31.4782 85.4485 27.6521 85.4485 22.1738C85.4485 17.3043 85.9716 13.826 87.105 11.739C88.1512 9.65208 90.0693 8.69556 92.5976 8.69556C94.9515 8.69556 96.608 9.47817 97.7414 11.0434C98.4389 12.0869 99.0492 13.6521 99.3979 15.5651C99.7466 17.3912 99.921 20.0869 99.921 23.5651ZM96.0849 23.9129C96.0849 19.1303 95.9106 15.9999 95.4746 14.4347C95.0387 12.8695 94.1669 12.0869 92.8591 12.0869C91.5514 12.0869 90.6796 12.7825 90.2436 14.2608C89.8077 15.739 89.6334 18.6086 89.6334 23.0434C89.6334 27.0434 89.8949 29.9129 90.3308 31.4782C90.7667 32.9564 91.6386 33.6521 92.9463 33.6521C94.1669 33.6521 95.0387 32.9564 95.5618 31.5651C95.8234 30.1738 96.0849 27.6521 96.0849 23.9129Z" fill="#232323"/>
<path d="M102.624 9.04358H106.285V28.5218C106.285 30.5218 106.46 31.8262 106.808 32.5218C107.157 33.2175 107.942 33.4784 108.988 33.4784C110.034 33.4784 110.819 33.2175 111.168 32.6088C111.516 32.0001 111.691 30.8697 111.691 29.0436V9.04358H115.352V29.0436C115.352 32.0871 114.916 34.0871 113.957 35.1305C112.824 36.3479 111.168 36.9566 108.901 36.9566C106.372 36.9566 104.629 36.174 103.67 34.6088C102.972 33.5653 102.624 31.4784 102.624 28.5218V9.04358Z" fill="#232323"/>
<path d="M118.491 9.04358H121.978L125.727 20.0871C126.773 23.2175 127.732 26.5218 128.604 30.0001C128.343 27.8262 128.081 25.9131 127.907 24.174C127.732 22.4349 127.732 20.7827 127.732 19.3045V9.04358H131.481V36.6088H127.994L123.809 24.174C123.46 23.0436 123.025 21.8262 122.763 20.6088C122.414 19.3914 122.066 18.0871 121.804 16.7827C121.804 16.6088 121.717 16.4349 121.717 16.174C121.63 15.9131 121.63 15.6523 121.542 15.3914C121.542 15.7392 121.63 16.0001 121.63 16.174C121.63 16.4349 121.63 16.6088 121.717 16.6958L121.891 19.4784L122.066 22.8697C122.066 23.0436 122.066 23.3044 122.066 23.5653C122.066 23.8262 122.066 24.174 122.066 24.5218L122.24 36.5218H118.578V9.04358H118.491Z" fill="#232323"/>
<path d="M134.62 9.04358H138.369V36.6088H134.62V9.04358Z" fill="#232323"/>
<path d="M140.026 9.04358H152.144V12.261H147.959V36.6088H144.298V12.261H140.026V9.04358Z" fill="#232323"/>
</svg>
